<mxfile host="65bd71144e">
    <diagram id="AMKU35dU7RAIwwxKSnBf" name="Page-1">
        <mxGraphModel dx="1129" dy="1340" grid="0" gridSize="10" guides="1" tooltips="1" connect="1" arrows="1" fold="1" page="1" pageScale="1" pageWidth="1100" pageHeight="850" math="0" shadow="0">
            <root>
                <mxCell id="0"/>
                <mxCell id="1" parent="0"/>
                <mxCell id="3" value="" style="shape=image;verticalLabelPosition=bottom;labelBackgroundColor=default;verticalAlign=top;aspect=fixed;imageAspect=0;image=data:image/png,iVBORw0KGgoAAAANSUhEUgAAAHwAAACDCAYAAABP2n9yAAAAAXNSR0IArs4c6QAAAARnQU1BAACxjwv8YQUAAAAJcEhZcwAADsMAAA7DAcdvqGQAADWTSURBVHhe7d0DmKZX0sbxZ82sbdu2bVtZK2vbtpP1rLO2bRtZ22ay/PI7yT/fMz0909M9/YZd13Xm0UGduqvq1MHbc6h//OMf/5vWkf773/9O//rXv6bDH/7w07///e/x7rCHPey4Iu8OfehDT4c5zGHG8//+t0/zhzrUocY16j1yr15X+SR1zMuUX76SduWblzuk07oDjhJwIPztb3+bjnzkI09/+MMfpiMd6UgjAeTvf//7SPId7nCHm45whCOM5H5vvsY9wJD8aDngaqf3PcfHPL93//nPf6Z//vOf47rTTjvt++WQQQsBHDgECjDCJlhWj77yla9Mb3vb26avf/3r01/+8pdpr732GqDOvYAypzjFKabjH//4Ix3nOMeZjnvc404nOMEJxj3loRTK8BRzoJcqhuQdz4IP+ZWTV5q3e0igdQd8LnRAAnTPPfecPvWpT01vfetbp+9+97vTT37yk+lXv/rVeC9/wAQCOtrRjjYd8YhHHN4AwNJRjnKUkSgS4M9whjNMJz3pSYdynPjEJ56OetSjDgDVhaq7e3w1FLiXKM4hiRYGOEtiUZ533XXXAfaXvvSl4cKRb2huoQHBGosB5PN+npShAMc+9rGHYrhSAN7g5Cc/+XSa05xmOslJTjLepyDKzAlfUkPGIYUW5tKlv/71r9OLXvSi6ZWvfOX0ne98ZwiexQMRUCc84QmnYxzjGANc73z785//PP3xj38cZQ0D3qccc+tE7hHgAApcrl+93D/wWf+pTnWq6WQnO9n4xgsop0zB5SGJFmLhkkDtta997fTwhz98+t3vfje+cc8nOtGJpjOf+cwjAQTg3DBrlgD9pz/9afr1r389ynD7v//978c73sH1N7/5zahzb95HnhRgTuo8+tGPPqxemywe6Kc+9amn0572tKNt4G+49B0kYAPpq1/96rTLLrtMX/va18Y74/GZznSm6epXv/p06UtfegieRRZAAS23y6LVwRJZPXBF+MB2Nf7//Oc/n375y18OJaAAP/3pT8d1aVwQ8Q7aM+ZTtrOc5SzD+vF0ylOecvAXzct3v5Twu7SNgwItxKX/4he/mB7/+MdPL3nJSwZ4LPcc5zjHdLvb3W664hWvOB3veMfbYUEBNiX44Q9/OKL+H/zgB9Nvf/vbkXiFn/3sZ8PTRCkW8Fm3cf+Sl7zkdLaznW1Y/BnPeMbhEQr8pAB3lVDPDTEHJVp3wI2Ln//856drXetaQ9gJ9/73v/90zWtecwRSBOr9jtAcvJ7dU4Jvfetb0ze+8Y3p05/+9LB84LN+sYFhQF5A4QOph5vnfc597nMPixcHmKPn8uWhuIgnquy2KAVBBxbFWHfAud9Xv/rV033ve9/9gq3rX//6YyznTtfLMgAgEf78Xr0SD6AdQaBh5ROf+MT0xS9+cfrRj340eJyDz53niSjnRS960ekyl7nMAJ/lA15wN1eQuaJtrS+HCMC//e1vT4961KOmd77znSMAA8ILX/jC6UpXutKYSul4wtoRsrADVONyYz/vov6AN767BxaQgP+9731vrAm8//3vH57A4o+EAB5Iyhjr8X2BC1xgRPqCP+/LE4hbA7N8ruvR5/WgdQf8y1/+8nSnO91p+sIXvjCejZNvfOMbh/BMy6KtCWmtBFBEsEsBQb4neFfKwNKtD5hNWAzyrmAxiwewAFPscZWrXGWM8/WDMjXeL0fxgda7v2uldQec27z97W8/onSuklV/7GMfG64RrVfHAQgUAErzerN+7WeRc8Al5B2Q1fPNb35zeKL3vOc9QxGM3QBVF8/h2ZB0uctdbrre9a43nec85xnfq/PAAuhKtFDAgU2gFl0sfQriALCouS/gAAAIBISAdg8Y96WAR9y6cq5veMMbphe/+MUj8vdOPsC74l0kf5GLXGS67nWvO66Gldo4sAO/7oBz5be97W3H+JiFWD8vOk/w6yEYQgYoqs6lgHZfu+5TAvzt3f/9du98dxV7WPix0fOqV71qesc73jHamAdt3PrpT3/66exnP/t0t7vdbSznaqN0YKXDPOhBD3rYvvfrQtzhJz/5yenHP/7xGAMJRsTLwlk3K0RzMCSUoAg0AHpGfVeHBLClQl56r46uvZu/z4Ln+fBsBdAwxIIvdKELDcU1zy8wxJO+UuaPfvSjYxGo3bz4lw8VDMYz8j1ZlG//oHUHnEAsvIiEdUhnCIE1sCQd9p4Q5oKu0wTTc+/Kj5Z+i5ZTnKXXaF5+6TfkHb4oqGkaZT3f+c43XexiFxtxgUifAmgPX7wBjyZg1X/RvHKo/qSc+sKr9C5ajo9F0LoDjnHj9rvf/e6xLKrD5rxtZZbHWDgHew6WlEK47/1yCrL0fino60GAP9axjjWAN9vgxgFrJS/ggWi517TUYg8vYUXRN33Vn3jVB8ODa/yi9eR5a7TugOuITgjeuHXUDhjN5/ZYus7m+lDCQN6pYw5u91GC6l35kG9Lv+8I5X4BJxY53elONxIFNhvQP8BLVvW4fl6A4tu04RVYs3oCezm+1oPXlWjdAdch2q2TH/jAB0YnWIMxzpjH1dF8oPtWCnzlgZUL7D1aDkTvfHddqhTVvR6knkDTN8pr88WSrL6I7lk5S3bVX6B7z0PIXx14bSWw/tbGomndAcc8S7AWbf16jz32GNZB+7lACxw2PFhFnSZE7p+gKIfnBLEcaAloLixU3nlaD6qNxtyGG4ptUQbwknfW8gO+oM7unjoMCZRDH8mEpcunvyn4omndp2VI53REIPPEJz5xLLMCVydpO7fI1dmk4BatVSuj4zyAfWyJcETL7r03rydkCkU4yhDUUuDRegkPT/hWn7YCSD+8A573rjaN3vWud03ve9/7xhxevsqZtt3gBjeYrnrVqw5rx7M61Jdc9GvRtDDAEU1n0Y94xCPGmC56T6tZdCR/grGIAWRXisD9G/cFTcc85jHHqRXJs+TkTJsb1SUR6HqQugBXfYDVVn1EeDde6xvvZbXu9a9//Vh8slVL2evbTW5yk7FgY22eIitLFspS8EXTugOegHQwoRjLCMCGBRcngOPi5Qsc+T3TduQdYfhePd51NIortZsFdM88Bc9hCkh46ovUg9SP5spQ3fM87ms7qk9RdS2XVx9sz27atGlYvB06eSgL3qzL3+pWt5rOe97zDqv2TlwQyYvU2b06k8mO0EKmZRjDbK6QxVrA4NZ0kKUD3TfWAjR5lNP56pCXYBOma5Gw5Vpr9IYLGyC2QE2LeA/xAaupnjk/6vOMAs1VXkn5eXtSdcyp/FJ1u3qW1/Lruc51ruGVeDlje6CZulEIw5OhjYeqnnhyH/mmPxTO/Y7QugOOYrrOB7wzZVw0VwcwnbKadbWrXW0ohKmOwIaQlOPiCINVE453AEEUwz2FIQyBkRW+17zmNdPb3/72ESyiwCCsxkm84JEbVq97dcsrn/ysUb7tEbL81SG/e0ncYd5+znOec/BjyXbPPf8xeKf0H/rQh0Z+7l0fla+PUry6x+dKfGwPLWQMR4QXg8Y1LovALcg84QlPGKdRfL/CFa4wjkNx0ZVhxfIa/0xvgCnC//jHPz6E5F4+wiLU6vdsGkTYBERQ3PwFL3jB4UYvfOELj4BJ3fIibZWX4rgHCF7Ug8q7LVI+wCiLZ/UATRuGNRsytmJZuzwpyW1uc5vpjne84whitdW3xnQeSz/l3VFamIXrpA4jnXbPEnTY2nNnzRwidPRJnnbT5uWMyZTBoUMWwlISmLEbmNoyRLDYrJTA8eGd2cJ73/vekSwGFRiixk7CTImUVb938bISyZ/CBrS69Bl/FM3hTcNXyo4/ySaN4UgcIiDFkzrkidQ1f14rLQRwpPMElhDc69yb3vSm6XOf+9yI4HXCOMel5wESBKAC3zuWq6wpj2+Ggjvc4Q7Twx72sOmmN73pEKa5sMhXecpD2NpH7ikK4VoQMobyIIaMhpA5yK4sHlj42BbJMy8XkO4l/cQ/i6Xg3LzhRyzS1qrAjucCOBfvneg+Y4m3HQV9IYAHsCtrIRCdtuTIwkXqOsSFAZuVepbXlbAIWR1ZiHntW97ylgEUcvIE0IRDWVg75XFAoR0u4yLlAL56UyjAc7HOuZk5UD6eRP4sSdsETeDbI2T54xc4+oKUldSlbkmcglenbXkc+SVDl2S9gfLqV20nzx2ldQc8wDCIEpyrnxqZo9pckM+06jrXuc5wd0DVIQKW13eUwIzfLNOYTiAOGprTqpslEo5krOOueQBn0S5+8YuPnTpk5Y8CxBOgWTm+PvzhD48hQ3n1y6Nd1+2hORhADeB5Pa4UQTtAF8yJ4MlDfqAL5iSeSh4xxXpF6GjdAceUBDACzaoASqgf+chHhpB9BwgLz7LqFFdGAO4JStBiTqs8oVi/Nu6bx9amsrlWCWiANz0S/fMirJ4lc6V4YI15IFucjjl95jOfGe2ZTeTqVyLtS/N7Sd2UH29o7qJ914Yz8e55P8ooPytn+cUvlZdvR2lhY7jOBoIOAvhlL3vZEChF8M7+slOh8iWEvIN3jcGCLgs3pnLy2Jtm3QQiv3cBk1B6Vg/LNzayetu0fhTBZQJAsITUI9qnCNy9sR7wFIbV1x+EJ+1459r9nJfyuC+PVF+9Bz7QgeqbcVzwSald8aFtPCsnD6WIB/Kp3p7r99ZoYYAjHUpQ3NjLX/7yseiAOR297GUvO6ZKnhMSock/7wy3xzNwfQAwxTKdS0lKdda9uqpPcq9eQRoPwc1LYgHAA5ugEaCNr3jVNrJAgrhXXkudqLa7D+D5s7a7j8onidz1C/WDCYbCtWufrKxhkAnqWh/1C1XftmhhgOsQxtJmwnNcuTn0Wc961gEcd1t+5NtcQO4pDgHruICsiLw8dZJyoZ5dE05CUR+eDCPqYD0szJSIkAV0ruri+lnZ97///XFvXOUplE/Q2ohf1ywdxYfn+rc1UjdQ9ZUnE9Xj3VAj6bs9BUOVeiV1qluag74tWljQpmEM64B7AZcplS1DeVg2d64jkfeBXAdYHXC4YydNHA8W3TdVSsDy1y6a8+AKpMizdiT8Nc9nxQTPiglc3RLPYnznBbSLH65WPfM263v815f42xbJK+YAKtKmoU/7LB3opnTyCOTkr905D95vixZi4XPgYsBvxD/72c8O1445P+K7/OUvv5/GovJ71onIPQFzfVxyHU6YqDLV1XtjHqUh8L7VhkQRuHTzYdYOeEIHLNfOsuVTB9B5KnUCHT/qqt1Ari3vU7iVAK8vADXkULra8s0Q4zul1C4ZRNVdv7ZFC3PpmMSIKxfpr0BwjVmsMZh7TjhzRt3TbN8k5SPv1alzqCHD+4RLMObeNlQEia3bW2bNMwSS93NPJMALePdApxCsDe8sz1FsQACHR5iDrD7X+JBqcyUKMMpto8nwh3ekfxROHt/MILQ1p8pvi9Yd8BoMMExh3F+C4JYIwLjtZzuEupTByiEdQMok1ADKRXtOyASrvIWdD37wg0PJBIqmc76bAvEQ8gNPne5Zi3LuXYFvBiDOwKu8hiIuXR7ta8P4riyPwEMgeeWZDyHbA0QUD0DHLyNpI4gcrBngzbCWd6yM+2S2NVqYhQcSYhECtjY2WDZ3bsEFYVhCrJnAI+/VEyC+ZU2IgAEgD1ActDB87LbbbkNQLFG7xmmLMLwLSjiS+4YaALrik4WLHSyQsGbTJvwpw4NYBNIewQvmKBOlq078qgd5ty3SB3nrG5euTrIS++gDksc0FeiUUXvJCG8reZOFunSEEZsWdrla4jQdu8QlLrGf8OusvADEtE57rxOEIPkueS9f7rzxzm6UX67anAE0JWF5FMuc3+qcurWlrDbU4wpcyoQ/bXqnbldum7UD3pgOeOUkUyj78gCxMgYIdWsjIObeSH3Lkfy+1U+8eIcvi0aWgU3ZkP7ylqZyppW9I8/a2FpbCwvaAgM9+MEPHkFH4DniA4AEKj9wkA7OqXqqK8UgEAK3cGK51o/57UIZb8vLWsUKj370o6cb3vCG+wkRDwl4Do7nOU+u8roqa9pEWSmchRl5Uz5WZ0pnTR8QylS+unK7knLdL20fuVdW4kEudalL7adY6hG5kycPRNHK75s65kobjb4vAnAN6UDBzrOe9ayxXEhookxCMwZlXd4TPIZRYEju5XPFvDzuWbDx7O53v/tw3wnfN1ezgKc97WnTLW5xi9GmNrwnEHWoWx25RN967zkAvE9RXRHvBHwbL75TLDza4KGA2hNY+carpcR4DADfJFRffav9vnmHR22ox+ER1qw/Ajr9scTMCylLjtWXPJOzuhbm0hEBcX8CNpqJcfNoVmfqEXgShlDMUpSYDoi+e9bZZz/72SM480wI6td5f17E1imhc+neVzaP0X3Cc49fwvbdM76Qe0LzjdDlU/eNb3zj8fMikXtKIUA1O1C/ebMtUWXVieb96Bo/PaPkUt8BzkjEGvpuaPHdUEapyBT4eE1hlEX6qA1p3QHXWELDqIBDAiAG/bDQJoZpBUHL470ymEWEB6TqkNzXEUSBWLhpl/I03KkRv1w1XHgGTosX6lNW3UjEzSKtDXDPQCMgAM0FJiUsfACP8CWRtHX5lmaLG9p+VY/vta0OvKL6VP+SQe9cyych/aFopmcMSRntiSOQsR7po/bIU9n6ghZm4TX09Kc/fTBHKJ5thwKc5dUZncNQHeudzijn6t08D2URxVIcVn2Pe9xjTPXsj8tHyPLqdAK3MeLwxaZNm0ZwZ+YgoBTkUUr77RRIexY3tOEepZAB4r1nc3vzdt9F7a3JA5+1U0zTKwoyL+teCmjkW/3rXpIH/64CM8vAYiLjuL5RMO1RBt/UizIgVFvrDngM6wRX8oAHPGBYGa1jdYInAtC47/IRLJKHsDy7Ak7CuA6jQA9wp0dYkTk98OVVLwokZVjc7rvvPublgh+u0DSOoLhHieAoJzdtLBZxC4gSHP60q/2GAlftGqIIn6dQr7zcr8iay7VR07x5CH7ffgR2yoC8kwIO+UYGeDFF9IxXfKpPWyz9/Oc//5geVlY+ybM6Fxa0AUznn/nMZ457Wg1o0bSgBgUohlmCwI6VEBJr9J4bI9gYTkDKETAlkgiYFVEu+QNaOfNxc3OnbVoTRwFJkHj2zKNon/XghScyhwes7wlPktc7CQiUA6jKS8pYqbPjhUcKFBhS5D5govlz91Iex1STkuob+eo30M0QWDk+6te8noUADhQACF4I2T0yfoueuUuNY0gA4qwaQJxoNV8XiJl3crUsU14CbXxF3rmfX9VHeADPbbK2173uddMrXvGKcahAXsIQaTtE4QCGXTvjPvdMaCySAnLJeBcsWU1LQdQbHw0dwAWm6F0+ZQGCD5bHEtXhO8VUBlHqOfW+q3ZKKYkr1y5RSkrsu7b01yYT5VO3vOqK34WN4VylHwgAjtA0KqoVpQMOYwAWwfv76Y4wCaIoAHdr6dKze6dBgAAQ7lNdpYjgdRDY3tdZP1QwZrc8ad567Wtfe9p5553H+TfxBDdoaOCWfQcUC2U1+ASgQxf4rl1WlQJ4TtkMC1bfBJSUx3t51adefWCdQPet8oFZ/ctR73kuVJxBPoBXn3b0XVyDX3m9B7jyC7NwHX/qU586XCPN00FCFuAQIiBe8IIXjG3T1qglDMaczrA04EuIy2Lt8iWchNW77pUFNo9B6Mb8K1/5yuNnPs7TFThWDhD4o6DGRwBxyep36HC+oDK3npJ17ze/+c3jdA5FlYewfUOGOCtkPAZeKEx16HP9mNO8/vJ1VZ6Va4N8yJGsKYA2Cial+F0Y4MZjPzDg6jTGlbEs4xiLZtkWERAXi0GWRrCiTdamM9yhOigJ5aE4HUdeiVi1P8iTdQPZoX8BFGUigIScQD2zQm0RIvDFEfjnBQi5vHOl47INHZJyFMy0zXjqytrJwXjOc3jvLADPFIjSSoQ/9XRPHiwZ2IZQdZEXxXLmQNvaoBTyrzvgNajT/u6ZhgjGHNG0SYef//znj78Bg3GgApr13/rWtx6HIrhazHKvrJS3ECABX8dYB+1V77bIHNuyqzZZs80TswRtJuQEgfCjToCzbsulFI3VcJ9O2jRkBI56ACgO8RefjKfyW2ItTjBVdLxaH1AKSLG1lRKtRNpC5Cs/vpWl/O6tJwh2kXhFcGwPgFLUxpY+ZAcJU8ZbnWK5njUmQmcp5rvGaYLjmgVx97znPccZ8wINwiUkEf297nWvsbNm7CZIUyZ1GLNWIlrOsnRU+QImbRCQK8CRe1bpimeROYXzDFBBmDLqSvBIeXNic/r+qA/LpbiWff0FaUlwqF9IP/wtODEOT6K+eZ1Lqe+17do9/lix2MgfNKbY5I38zVuyFk+Vd90BJxQaaIEjl8ctctGs0wYHi5OHErBsFo4ZSsB6A4lF2KG6y13uMoIrYKmf+yTclQhQ6sWHlKbjhwCApU33SJtIGcopJSh5E3L5kGcBmiHMPffKO93sZjcbQ4C29MnCkK3OwNBHHpDykos24mM5mn/Tj7l3U5aS8aDkRbbkJOj140qeMd4XZuH+GoKGPBMqFycQ4p4TJrfsbDrmCCZijUhZoMnHylm9fIIj49VKZJpE49VPqEWy+EGEINU2QSbY5uGEaQwUe/hW3vIpz52zJMQr9JeYgast4HjP4pu20RltvPSlLx3TT1aPN+0tpfjUpr64L6+6XT2Lgxzfns8m+u9HYOJ53QHHuHHEGIIwZBOBwLhY7gWIBOEdIStDATCOMR1zNSQYb9VhnPJMWKxpewCnKKyLMABufNV5QtOWurSVlZfwyGpF2oTEFeuDfOpCeJa3uuuDObBx0zP3ri2eSnumdrZqja077XS0UR/D4N71Rx5JvUsJH/Nv6veMvHNPRuIfMxHP+OFJKKQZwkIAB6bKCQ0RiI4arwkAaZimSwSCsd7vo/37nOtKWJg2JeK2dERnt4eAVBmJi/MXGdwTkmTapT11Su55EIBTUMTjCLCyLiSvvmXx6tR3/OuPfA1BLM49sq995zvfeXgf8vDeGr7pXDxtjSi+euWhLNpCtYkYiPUO78jOe1NTcQZ+Vw14wnJVgSvqHW0veMEUMpZxrfMOCYKM5dWnrgQQcf86CXz3UuW3h5SzAGGdXb3a9OuXZzzjGUMhCY/gXZseWWd/zGMeM1b8kPemgZRWPn2KZ7y59ky4FAHwgI58lxA+uF3jLQ8nr377Iwbcu/L1cz7M8XjVgQ9t14bn7vGAV2cO8Kp+9cBljO0j1yoII5GGpPk9a+QKUUwYv5Rj0YDHOO0zxucJdEBS3neWBzBMYtr4bxVJGwCwYbISyWsqVsBHmJTMGoCgiis1feRWrfT5QwX20h1sMB1EXLS/vsRTqA+PrhGhUgp9xSuw8E7IgeRe20h5MjArEVmnJLxiO3fzNQZ8kB0vMVei5Ug+7WnD7Cerx6N4gaxXDbhGdXieNCKxUuO3cVLjWawpjkZZGq1WByGwolyZTnuvY+py5ZYk9REEF+uZ8I3PK5E6LXDc6EY3GhpPEHgkXAcrH/KQh4z9c3/u219EtvJnvgwo7VgEohjm0/qJ5/rsO9I/+UwpKahlVcCpwzd9KT/F7dlZtKaJ+g8M3sUqHaWvTAHYSmCj8gHaEISSLVzwtGrAVRp1H9iYZkEEGglgjCuY7zfcAKMA8pmLmqoh5eUDjO+ezecdTrRPjWHMtyq3EqmH9em8EzBAtYHBEnkXS5CsuzV7lqkf2mYh8vu7avivvoYefCbg+ZEtFm4pt1hBHnl9U6/87k1beS39US9guF2KqKx25FUWKSPPShRPAtyoNtW5ppW2Gg5wFcWwH/2ZW+oETbv5zW8+VtkwTvg0uhMbaR632v4z7ZY8q8e0gou14pWX8D8SqLP2t0b40oa2rZNbCzAcaAcYTbtYkbyAtWvmkIb/mMdQIGDTNynhqxMvSDlRvFmJflDKhrX6xEWnxAJCMvJffAGdy8aD+gGjbgop7lEWUCmE79vTZ4ZCmS0GKW8IIS/Gtuo/6lPnNVzjMcz1OjgoMEIAtz3azg2GCcQ04XnPe95wf+rwzVRFVK1zlEKn1ddOGbIGLuABOBe6Euk83rSLdD4vROEA5BtlIhRTOEphCLLkSUHxl+I0VqdEc1nwUs997nOHOwe4fqiDkA0rZAFw0bItX30Dtvp4PG1YzlUX5bTMbMFJ/dqd92NbJJ96HRx12ojslDcdFIvsEOCoq4b83ZKHPvSho/OEQoiCIUFb4xkiYFujpgudScMUkN0TjvI6aNxElAHQ17jGNfY7xlTbW6N4LdX+nGeC5t5F69r1LVDdA0kefHivH5E6kXxAthVs+BGbCEoj5dWtPUonURh1UWJzZ0oongGWvBTlSU960ggatasO13jfGuGbQjmty5OSqXJO+ozf4q/WpdegawLUcQIxHbN+y4oASFMdLCTMhK6c8YUSGNN1TmcspmBMki+hsA4/IKCdpjLKRfJui/BXmxIlkSqXlVojyF33DU+o5/qtPJoDoA7leSkxgj4BnMWWFy+EX5s8lDk5JTaTMPYbv+XR96Jzfad0835si5SDAXdee4YHmziCxDX9nbYaTyiIldgtut/97je+G/toFNeCYZqXsJRN2021eAHjdZ1kLbwDCzAcWKpk1YFSPSsBPgdNvVL3vmW96kvBkHd4LG9C7l7KA0nze3nEBsZpsYeZReO6doz3xnSxCMvGg7HcMGcHUSSPF3ktNj32sY8dy8qMBs15ibzzrA0e038SKIZQDxnCxEyFkq3JpUcaysqNtcZlAHsv4Hjc4x43fmVCkPIRyByEyuqcjgrgeAoCIhTCATxSZx2TlPe8LVJ/edGcd9R7gCHfeSdDjqvveDC2uw9Y/M7rrk/eI++rS+BmNiKg5fUIvXUJrtf+ufMBYgpUfXkC8QTAbMjwHtqo37UrH9nZDua6zXzk891QCBObKtpfs4WjOQA068lPfvJg3ntC0hljkIYieROcfCkCwiCNR0Avep53EinjuXJbI+3IV9mESfO9c+V6DSe8SwGdde22Q0XtInYRvDJL+x6pS/6Ue843PrynzGQBXL9oNQMRuLJM+Vhj+wWUrjoov2mlIYAhsXb1ZBz4Fz9YSLInji/DivoYnaGQLNW7ZsADCqMaFnD4M9m0VsVcsE5peA64/MpGhKE+HXNtvIoIQx3KIfmi3m2N1CMPUN0TgLm2KZR6Cco0yckbgmeJxj1l5Jfsyft/U1kl3lKWFBMoXckDf+71cQh437pcDXva94sZCyyssrJAtZjU0SuzGxE9UheQWbhlUzMJizxk16KUqzbIynv1OZz5yEc+cswW9uNjLS5dYUy66iThWa60cgV8zFid2n333fdTjKzNfXX4ph6C8b761RGw3suLuqYkCX1rFI+uiAUbWztexYqR9hF+JGW8oyAOLlhuFZB5jrfK4KPgKLDxh++UV50sUVBGeZykwUv8kZd58i1vecsxXlMM1m+p11CHtIHkV6eEtJFBUUYk0MW3TRpTPu/lG3IeOVZBmNeYDmFY4g4FX5jyjZYJtlAAJ8jeze/Lk/UQLOYIRTltqNt3+XxbCWwEgNpSB1fq8KSVrMBGvqmTFRE+923M83+oOvAI7LwM4cqLAIv6xpPg1zP+8MsYyMb/DGHbsimrfPopctbOU57ylLGqpxyLNA8HupmMfPrim3Yk9xLeKZO25WP9Tgnd5z73GWUpKJ6T46otXEFCRFmtccOCCzeEdEKgYEqBCSBJMbuU1EOTfSNwbUhcnmhfHTFc+4S+XF1z0tnyIoGlFS5r5qyI66RUAOUqTY8AzXX6llCllHauQFLfKD3BGiuB7Jt2eZQHPvCBIzbwPp7ltTwMbAGZ9rzzPXnJrz3bp84BmvbqU7IMSElwRjnNaFi4tuWVD4/RmsbwaGjM3hUKFrgfGw+eHV0yFyRIlgkw76OAywJ1wDvP3lvbtiRLa2msKJXHCLhoXudypN4Eoh31iTEEZYBmyeaoLAqP8hAOQeIlwWtHHRTT9/gM1L5TWvnVRbkMHX4AAbjkUDkW2Iohj6AePPEK1gXUU3vem9MrazgQe/iGXy5bvMQ7yWvslr86kLx4xueaAMewxhAm7C/7cZ6GMM+yWTvBiTZNbeTXadeEiTzXOQxZ7hTti/A9y2uqYWzTrne17X4lwp/6K0OggFcXAbFINISxb32+KZOQllLvWBCg1K1eBFxn7S0vmya1IRMPIm07dBRYxO199eHVvXcIf4g3opzKc9/qQ/J6h4f48M53KY9RvSP/KLkKivEqonkWGgjRe4QpliRv0xl5CTAh+lZnXX3nFp0jdxiAMKUskPUQam3oEAVCyms/ojzz+uf8urIGlpC19r3kXZYrIe3lIqPydG+xw1hs3dpWp7m3upChyelc3xx3bm5fG/LhJ/Dm7Rvmysv1kyn+XRsK5v1QVl3uUe/H/fh3FaTTBIlUYiWJFatUo4RtquPPfFg9ImTCktd9Zd1LSFnewYIBN0hQmOaWuHYxgbrVAXT1qUce1L1vudXIPZ6keIy6V28CQT1LyuNTWYkys9ry+YZffbUqZrXRFEl/lOXxeCff/Aii0zfqqs3kUpu1Fc3BK09U/vk7NC8/p1UDvrRyY1U/0gOEJNiyJ2zlze5RlpHg5Z13ihu0rOjYLmVB6rEB0P8iELiEoy4phUGe1SffnL/ex1/3lKM6t0XySkh7hM+i9INHsl/vFzZ+JWvThLfTBqDFME62GK+tZQum1JHRxKfrnOdF0prn4QjjFhEkS4gshvYSZoIW/QroLCooO7cq37llUxV5uEF1qsNmyV3vetdxeEEZZeU1nRK4iHpZkXqsThGuAE8Q5DkeXaWUUV3aBRjwViLtKpdy1Qdt+1WLZJrH6rXjOzcrcLXCZb1cUKU9/aouyiav9+pLLoumNQGOYULTSSs5pjmAMk7lsoDYtMJ5bNOP+a4U8k3EbAonqqcoxldTIwpg69A7wIgJbLI4TcqqrIpx33hpFcqpE4f9JdbEErNqyT1K2J63x8q1Ia8y+OHRzOfFGqZKxQ8AB65FJ27cAQq8AdU3/CD1eUa+oRRx0bTq7dG0EnOmBzoONB1gZU6LOPLT9MF7Vsk1N1Woc6xUNO7XEcADrCNRjhY54CcfRRLtGhv76w3K2U5kZazeGAoE00JDgiFFUGMoUGcCzorw4Fk/VgK8vIiC4wW/Yg1jNf58B6xlUVMtO1M8G4CVl+Zgzz2g5B3aPwBfUwsxZq1X0JZAAMo6aTbgdZTAG+d1zLvcmvVrgVr7xhTGWMcV5v5YtpMkVp1YdcKz1045LF64R97LD4xO1ABkLlTlA2l7rBtRLBE4Xh1KcMiBwlEg9Vhnt4p273vfe/x0ipUDVZvyzIeOOR+S8hnA/kGrbgVjOoBRCyRzIE0TRNTGMG6NQHUcsTxWDEgdDHTlkGVAQqMo3qvfkqQ5PldueJDXGG01iWBNcyzKiH55EN/Mq7VpdcqqGvefUKOEvj1CFpjZr6ZANodsVFAY3sEQZqzWvv9diWcTP/A6+qfN+ogH92TSQgvqm7R/0JpcOuZ02OIKMAhAJ7g0+9/ugWtcNo2Rn9Yb34u4vSu4Ut42pF9ZshZ1e69+Lt/QABwBnDXmflFqjHdIwAlTv5wkZAs3XC/QgW1c7yezc0rpAj0l0K4+4oHCOcRgWdP6gAUQyo5/82hLsQJLO2rtSEnySHjQRq495Zdn6bX7RdOqLZwgdIKb66AAEjRZJCFYnXPVwSyLkAh1bl3AJTCu0q89gIMIi5UIBo3X8hKw3SSWrS0CUqexGmnT2O9Xmq0l43V+QlaSLx7mVh84vlMY5Uy1+mGCfuJDu9rfZZddhnvnbYzffXMtUfz5Sh6ZpOzztH/SqgHHMKEY04zf7pHx2xHgBMYaWgbUed8JRvk56XACmpMoXzAW2UlKuOoEXsJyzYrsAQv4eA+KwwNJANU2kFNGdaSEyqsHz6ZaAAU4K0eAs+Ll165mFb7zVtpMBgcFWjXgBUF+uuLeuE2Tab15MCETXP/llO8Eah4OLPcJaA62eyli2YEKYL/UoFDyAi4XnbVmOTyBtXxgKC/GoHwA5TUoI/KsjGflWLDhYO8hbpwJs1+urSyfy/beiR7DjzoRBZrzfWCnVQNO0ATBAk1LCMx4zbUKvETcVteciQYsKxXIARz4ys4tgrC8kxKc71as1EugoneROCvzDZBSeSmeq/LmxGKFPIF3gGa5lHHOg7z4lodV+1mRQE+AiLTNM4kRbIYIzkTn6qEAyuMxpTso0JrGcNptjDOGUwBgmo6xGO5TZG3lLYAIkgdYCuy2qDxAW06g6p1fy58izJ8Bo57G7BSBlVNI6/Wst3Pc87hE3GD3jvfiyUTmCE+AzwAOKrRqTgkN4E2xEGsUeFlNs27cj9sJ2w8HjL8sDnm3kkUAQ/QNEOCIFUTqgPMND5SrvASP1EvJLMCYTsknmSYa031Xn2ROzxP5K8QWj4zV+qNe321jOgBorDY7yDNIPEqAH5TARqvmVkdNd7g94Ok84VpitGFizDTusQSCIrCWOYGTRa5E3DjwAKYdc36LKizQc1Y69xjeUT6bGLyPtrQ9bx9v6rFq51cy6sW/9xTKTMPZPKdUuPJiAXzoe8NMMQNvoN2DCq0acAIWoRu7dVTnaTphERwhsGZzU+e4uHrRrffyZyUrkePNxskAZYUsknfRZnX4BliAeS+PX4Qas723NmAejiy5qgfQfnyfJ1KXqwifa+fixQG8Qu1TNFd9lVd76qdI29OfAwttsfACFB3SOddAjWi7YzvcZgGLwMd4J4omNIsvlkj9PoqAlFdOnQlwJZJH4jkoF4E3M9AWZSDwEhdtvX333XcfCimfgMuum1U/y8CbNm0avFMIwZe+KUu5rPDZjnV6tEWU5ID/rsmi5+3tz4GFttgtA4yOAiqBdK+DgjGH5WwiAEFkbkmRJXHjVr8AkitMIJVPiCtZBcCM26zRKhfXqRylAopA0TiPN1ZvPx1PpnNI24JFmxncuxhDHi6fdSJjtuVcu2vct9kEi0UpkjYPSoCuRFsADhCkk+4DBgCEYTpmXDb2yUNQgjXLjMY1iUDlNc5z5xEBBvxKgFMmef2ixYqbcZmlKycZNkzVRM5ctQ0a7wENSHNly60s2WkU26rax5881t0tz7Zyx6rxlZK7PzgBHW3h0ucareMBA0TCsnlgnDSd8c3KkxUw1lYg46qscR0g3nmmQNsDNtIe4KzBAwMQLBnolM93c35ewJWle2f6xNuIHSilE7XWC7QvibZtXbJ8YMtfjBGPaC6HgxNtZuE6jOq8NAecUEWwFie4SWTHyt9IMY4DSH7lAIuA05CQELdHmPKj6rO/zrVz26ZQ2udB1G8oMV47BWpmYLXN+rfz8gJJdeDHe7tqxmtbuBQzPuf9jbf5u4MLbQZ42p2Q0RwYFuuMFvfaypXDeX7oJr+8gOIymwYBRbSrrPfKUIwEvTUCZB4j4uZZuaDMz3b69Qj37Hx2QJty8UC8C37Mw3kKYAvi/I9++iro9C2qzxF+EZ4PLrQs4IQcgHMNt9YsAnf1zVyZxft1JZJXHfK7AgwJpIyh3LEpEjdqjr0tApT6UgzPWR8gPPumHYGYtW+bGmKMvfZyZHqfbxTBwg9FFY0rUz2UivIheQN8fpV3JeU8KNFmvipBJGxEEMizBReW4x0hmHa1pamc8pLynuVj2X6GJLBzts2YauVsJWoeLc15QIHA4vEkKKN0Nmz2UYR9NlcEY/5Oii1OYzqvow5A428ekaPqpagSyz44gY22GJwSckKIWJVImKAQILlGVp51zBVFPuOn0yIWOwRWnrlhlr4SCa4IHKgIAHjwrA0KYWWPIvmfk0Tt2pRHPGHJlGs33Bjb+yYW4erjF+9zvqPep2wHF9oM8DqeZrvPLXtnimTciyxZCpYCwlw5C1EXKzMX7q8bEHrz9DkRKiCUWY7wIQ+L1JYVMgcmWLWxPOWSTwBnw8NZcYGZoUO5LFY8gZTxjlW74tu7KGt3PTjRZr3RQSntRoQISBYKcNbpu7ER2KyFIIFrehM4PIBdM5aYK7WSZSWOBVY/AKW5kgn0BGfyqJ8yyWM4sR/Nop0cBW68Kus30X5o7wiUb8ps0Oa0hfoSHmsj+Ll2G3cJ3HeWYJPB3HtuFcoQMoCsavmBAvA8i6SBbaUMuCigPAOO95CXFeaiEQu0dWnVzU+Y/Hkwiy34Ud4CjM0O/6mOuEJZdfi2QZvTsv6KoAg5AAFvTuvKWgEh2gZ4JK/38vAGDjCaL8uvPme1+28wyicpR8EAzksAn3fwTXBFAfw5EUA71Ghp13fEo1hR40ks95qWaYviqG+ujBu0D20BOEETGmERGjAkx35ZpHdA6q8VyldCwLZu7Q/vBaa1dpspFCSQS8pRrtrTNuC1ZbHF/rrx2HTL8CCvxFP4kxb2rG2OCPKUVSclQ+43aHPaDPAERPiBQXiEb0mV5bhnpQIvixbySN5zsQ7/O6jfSpygydhNQQCpXnklpGzW7p71Atb0zUmTlkbbd9amCJx792c4rax5B2zeQD0UwnWDtqQtAJ+nQDBecs/cu/ctXxIsq/QeGAI626Z77PGtMY5KfkVi7ZqrVjYFqW4gFQiqRwTORUt+WF/wpi1/I91fdjSft2pmuhUP6gO6e/mLQzZoc9oM8MDonsBYloDJvUSoVqxsf5ZHInjXfQDaZ3vVcqYfF+QJAFEdKKCQoNB8/TnPec742bB9cFMtZDbgyJG6dt5557FhY/yurDpR8YXn+rFBm9NWAY9YoGXRImsEcNOeBA1ACTB2qmxOAMjJEWfE1UkhltYNcMOEnyEJ8oBt/Dcc+AZAJ08EfBZQ7F2bDmrX8GBoQXO+s3T8phAb9P+07G4ZInAkKvaLDn8LlZsEglMj9r9bxEAJF4DWznkG4zZLZNlAqM4AAqwplrm1VTNWrg1gye98ubm1PXcxg7bxqD7tzZVwg7aPtrpbRqgCKNbnIIEjREBwKmS33XYbllsQVhmkjsZ63xEQWbgroF2tvvmTVqZcreBVxrxa/Xa2/EkrsYApmvarB39Z+AZtP23m84AGkEAEnIDNWTLkOxdrOpZ1yVt+pLx8AES+uacIABPJ29P2QwV/+cmGh2EDkDyGIYH7FqGzbO+U9V15pO0NsNdGWwxyAMplurJw7wibAlg8EbB5Bu5Sktd7y6cR0JQ1PJhm+YmvYQH4wDN1E3EbJvxFCYCLEVqkQXNllDZobbQF4EAGDjJd8hcXCLgI2OHB+dgdIIHgWWKVEvfLHduvtnfuT3lYUMn1y2us92P6TZs2DQ9CmSzJ4sX3wK5+pPwGrZ42AxxohBu4LNCauPeAA7QxnOUttbKegQgs9VhAEbz5Wyis1saG7dGWRk3XrMJZA7fDpV5tqMvKmbrUAXgEZPfxuUGrpy2kRpCScdVJEm4YETJ37liy8dRzgs/qkOeCOfNoYHbKNYtFTr04mOBwhA2PgjLlKQll046AzRX4AFde2rDwtdGyZgIslgVw94jQuXNWCLgsLeoeaMBzCsVqmB2zgAaSfKJvQZml0aZblATI8rDyYgBAK69ePKRgrhu0etpMagQJEELnlq1hZ1VAtMIlwPKOwF2B4d5VGatyxmp/88TvzChOdViSFZSxbIcTBGoBlzUHqATkrN7zBu04bdWl2/VymgRYCCD2tLl6wjemU44A474toDi2zLr9tKclVWO20ynctxMwzsFRnMoi+ZYD1vPSdxu0dlp24QWQfmzgD+hYG2dlQLLsaWlTPu9YNUWwYeLPalmNa5VNHlMuQZ7dMn+RkPsWjLUgs0H7P21h4YhF2h0DdhbGHXO5jaXANG3zN9EcOfL/ZHHhgW0cdsLFNqb/z9ofcAc2ZaIoG3TA0GaA5zq5Zz/hAZx3wO2XoJ6Bbhtz1113HX/SyhJp+SmD4M6fx+DebXg0VrNs32tng/Z/2sLCgSb4EjEDybMomoWzTlZvXu0vHPnJkUUU70XTNkpYtbPgfn40/z9H1cOy5d2gA462sPAsGlDuAwqwxmhbmKZUAjNuH4Cs1qFGv+5wQMEP9fwNtrnrLsjboAOWlt0eNZUCqD+aBzTWa6HE3NgSqTGeMrBcGykONPo5j9Mt1tl5BGQ8F6mrw7TOe2XQhls/YGhZwIFhy9KfvzAXt29t3GbtrF8+wFl1c77M9qlVOF7B9yjAEQtXR0BvAH7A0GaAI6ACVOBmamalzLSLhZqDtwpmw8PfcWHZfoGiXFa/AeaBl7YAnLvmwlmmaZefBvsDtyydlbJgkbdx2twcwI3VufINwA+8tIVLX7p27V3jb3mA7Eo5XH2TtwCvvBt0YKNp+j9LRQUWZnYI2AAAAABJRU5ErkJggg==;" vertex="1" parent="1">
                    <mxGeometry x="39.5" y="355" width="132.53" height="140" as="geometry"/>
                </mxCell>
                <mxCell id="4" value="" style="shape=image;verticalLabelPosition=bottom;labelBackgroundColor=default;verticalAlign=top;aspect=fixed;imageAspect=0;image=data:image/png,iVBORw0KGgoAAAANSUhEUgAAAJ8AAACeCAYAAAAsR9hFAAAAAXNSR0IArs4c6QAAAARnQU1BAACxjwv8YQUAAAAJcEhZcwAADsMAAA7DAcdvqGQAAB0rSURBVHhe7Z0HeFRV2sffzKRJIECCikgTCGIB10axLjZwZS0oKK5l3UdXBVFXXduq2Na2YnvWFcWKKPZVEcuqnwVw14JipUkJvQYIJQlp3/m9MzcZY0ImM3fm3gnn/zz3YZhMJuee93/efs5NKykpqRYLCw8QCP9rYZF0WPJZeAZLPgvPYMln4Rks+Sw8gyWfhWew5LPwDJZ8Fp7Bks/CM1jyWXiGZku+6upqvaqqqvTitZ9RUVEhmzZtktLSUt+P1S00q9ouQisvLxdzT7J8+XJZvHixrFq1SoLBoPzmN7+RPffcU9LT08Of9gcqKytl2bJlMn36dJk3b560b99eDjjgAOnWrZu0bNlSMjIyJC0tLfzp5oVmQT4Ih8bYsGGDfPPNN/L999/L1KlTZcaMGbJl61apNprvd7/7nVxxxRVy4IEHSnZ2dvg3vQVj/umnn+Sxxx6TZ555RtICxhCZBbTPPvvIoEGDpF+/frpo2rRpIzk5ORLg580IKU0+NNy6oiIpXLRIZs6cqdcXX3xhNMjPqi0CRuMFAkGprChXrdi378FKwMMOO0zatm0b/hZvsH79etV2jz/+uHz44f/p+ILpGcZFqJQqow35/1579dLFwtW/f3/ZddddJS8vTzIzM8PfktpISfJt3rxZlixZIrNmzZJpRoA//vCDzJ49W9atKzI/TTPECxji/VpLQMLevfeVs846S4477jjp0qVL0gW5bds2KSwslP/85z/ywgsvGE090ww5zbgGv3QHqirxU6vMq2rZbbf2svfee0ufPn3kkEMOMaTcS82zXzR4rEgZ8qEJiouL1aR+9913qjUg3NKlS2Xr1hIjIvmVAOsDAu3UcXcVIgREo+y+++5JMWkrV66UadOmyXvvvSefffaZLFm6TBdKY6isrFBNntuqpXTq3Fn69O5jxt1P9ttvPyXlTjvtFP5kaiElyLdu3Tp599135auvvlLiLTJmdsPGYtUiANPaFBD9ZmdlSceOHVSAmLVDDz3UaMXe6uC7Cf6WE1B88MEH6ocuXbpcSsvKmkx4TLJZg5JltHVeXhvp3r27jn/AgAHy29/+Vn3DVIKvyYeWe+mll5R4a9asUXNbXl6hWi5kXmujwPJtZeFXkDGg/lMkKszvpWfUakY0KVow3ZjnFi1aqA/YoUOIjEcddZT06NHDmLvdNOJsKjZu3KgLhMXy/vvvy4IFC834V5uAqFgqjD/HuBuLYHERIK6DjMys8KvQ2DHHfENmZobk5uZKfn6+DBs2TE499VSNlFMBviMfgsMk3XvvverTmfGZqLDCTH6IOCGZ1QquorxMqoww8gx50F5Eh1OmTJFvv/3uFwTMz2trzN4K8yqtHkGSZzOkkErVfPhSpGe4WrVqJQUFBXq1a9dOfwZZSdngBpQZDbbVRNSrV69WrYZphTTk7YjC+XlVVSiYAHUXTORYHEC8Aw7YX7UZARSLsMgEKICFlZ7u+KksoNCr8m2lan65MMV//etfNVpu3bp16AM+hOfkQ/gIiQDiww8/lPHjx8sPJoAACKY+nwgfqCrsB+27776aF/vDH/6gUSzfw8S/9dYUFXhF+TbzmX3kmmuuka+//lpeeeUV/QwkTM/YfrCBmeP3m4qGxu2gosJ8p7nvTp06yXnnnScLFy6U119/XTZtKpG0gNGK5jNnnX2mjLnpJg0s8BPffPNNs6C+lTlz5qgVqK4OBSl1Ayu0uWMFIOGf/vQn9W2JlFlIjWncZMIT8jmEQ8vNnTtXPv7kE3npxRc1yQqCwQxNkzhwtJN5pWYS32b//ffXlX300UerqXSSx2iem2++WZ5/fpLmzdBAaL2//e1v8uc//1nefvttvRDoihUrjGYtUzPu+F9uC8cZO9rQ8Mpopmzp2rWraukhQ4bIkUceKddee608/K9/Ga2bpQurdW4rGTlypF5OSojfJ7j6dOo0mfnN1/K50Yjzf55vxr9VTGBcA2f8pGsqK8v1NQHVKaecIkeZudqzZ091L9DwTfU53UbSyUdide3atfLll1+qE/7WW2/JYqOJAkZT1PXTNNVgRodJzM9voz4Y0SkX5MPhrpsqIdFM0vaf//ynMVUbVDuUG9N83h//KGPHjtXPU/UgGY0mgYRoHvxJzGiEm1ULI9BoSKlEq1koISBffDLHfEM2XAPGj0lkvKNGjZLX33ijhnydO3WU6667ToYOHarJ5bpgnGhAzPF///tf9S2ZUy6+A9UZqXnVfzRzyaI+c8TpGqBAfkiJmfZKGyaNfGggEqv4MJhXtM/SpcvwWiJ8mBCoSCBIJqygR3ddqQQBffv2VWcaEuKP1Qd8LL4b7TffOPoO+Q4zk/3AAw+oKQJoEjQvJpholLQNZhnNCRG3bNmiQg75ddsMiRqPqFksuUZrQSoI18IQp6MRMG4BuTnyipjayCAGP/Gqq65STeaQb++9esmdd96pRN1eORB/mPE6wQ3RNNq8sHCxuT8TkGDCI0gYMvdiCN1CNSFWAyJi2t2O8qNBUshHSoSV+oZZ3USus2fPUQ0YqemUbMbHAjktdtISU48eBTJo0HFqVnH2o0kl8D2OQL+a8bWSD4HmtW0jt99+u5xzzjnhT9aC+iqEQwtBOnwqhEp9mH+LiorUTXCCCDQx3xk0xMgwFwRBeJlZWdKpY0fpaK7OnTtLPmM2RGTcEK6+BTNhwgS54YYbarQ039v34IPkvvvuUw0ZLRgj48Zfft+QcLYJ1lhQm7ds1YUTqd3QhFiAbt32kGOPPVYjZNJMWWb8yUTCyYcm+vzzz+Xpp5/WtENR0XolXd3JgDTt2uXraodsffv1lZ4FPdVcEV02BTQU3HHHHfLyyy9LOVGsWf1Eg+eee67ccsstsssuu4Q/WT8gmHMxLod0kFTfN/8vNVoHkwXpIJ9DQP6FZAiyMW1CFwsaDo2ckZmtmjMjPSgnn3yyEnKPPfYIfzJ6MN9YmJ/nz5cvzLzj2kyf/pkurrqLvdLcR+vWuXLEEYerP4wpTiYBE0o+hPW///1Pbr31Vvlm5kxjJkqVCA7xiCR5ido/7bTT1AQQvRKZMQkIMhZ/BHNEof7vf/+7JqNZ+WjVdvl5Mv7xx+UYY27iBffWkOmPFtSiL7nkEjX3kI8xtjFkIFr/o/FRMd2xgvExDyxE/MJXX33V+LfT9X0nyoeAXJmZ6dLbzPttt92mlZ947ytaJDTcIZIdNWq0IeDnxsyG/CbIhKYjHdClS2dd+aQZSIWccMIJrrQSkYvr1auXOtQO+NuY0E8//VRzcvEiXgHhiuCnYSYjUz6YaDQeGj8eMD7mEV/zzDPPlH+ZaPrRR8dJz54FOvfIgPkl4i0vr5QZZgFcdNFFKrNkIWHkQ/XjY82dN8f8rzZa5KY7dNhNbrzxRg08LrjgAtV2pBRi1XR1wXfwnfiNFWo6QyEs2mXis88mdYIbAkHCc889p2YSa6Dm3ZCARUNQ5MY8AL4H94D0DtaFYGz06EvMfLdRWTifCaQFNepHCeA7JgMJIx8T+9pr/zYajNA/TDzjTJPwfeihh+TKK6/QqDVRnRkEKEcccYQSXRN5BkwyjjljQwt6BQhHv+GPP/5ogpRwU4AhX05Othx00EGaQkoEsCbMOW4QMujevZvKRGHmhsVJsPLUU0/pYkg0EkI+fBiSur9cvdVyyID+cv/992vGPRmtTPwdgpfIcVRVp2k708cff6w+UbJBiof8HEEGQYADUk49e/bUklqigT+Ni0Pes1/fgx3doMg0BMRiYZUSTUDXyUdeDD+ustJEbuG6JWavuwnrcaLpSUtWZp1VDgFzc1vWTCTzvHLlKuMDjVN/Cwc8mSB9M3HiRPU71SoYMLZgIE3zgcxPMsDiP/zww+Xyyy+XfffBzId/YFBpFshdd93lim+8PbjKAlY1FQsaA5ywXhOvrVrKSSedpEnN+jL2iQRVAqLooFMDNbPM2ObOnS3PGv+PaDBZwA9+8cUX5Y033pQSE4DVSNyQj/0l5CDxz5IFNCAEJCAhE+AsRJL+LEw6ikgtJQqukg+HlcndsmVr+B1uJKiVid///vfqhyUb5PTOP/982XWXnWv8G8zw1pJSJQH5x2T4fySwJ02apG3za9et0zE4yMrK0MVJojfZILoeNHiw+seZ5CXDFoIGXbIQiQzOXCMfqQPKO9RLqxxXwdxIS6PpTjzxRPVnkpU/qgtyV7TO0wnjgAhzvSHEhAnPypNPPqkNq4kCrsirr75mTP0jRtMu0b/tgAWBRaArJ5laLxJUZYiECwq6a0lTYcZIowe+H1WfRMA18jFQ2sOLijaE3wHVmjXH7MXSlOkW+Nv4m0xwRTi9ACDBmjXr5LHHxsuDDz6ohXm3QVABuceOvVfTK5HVHcbSbY+u2lhASc4r4P9hnaif43sCxli8abOmZojKE4HgDTfccHP4dcxggt955x1V0ww4lLiskGxjTi677DIloFdazwEEpDt5kXENfv75Z9aFjpNJJuolAp03b65q6MbKb9GCBUmZbOJEUjurDPFq85gU+bEKNM0OHDiw0VJcokHKizwrvt6y5cuMvNLVh9+6ZbO6S+Qfm1rmbAyuaD5WNCtk1eo1NSSrrqpQP++YY45JSlqlMUA0ks5XX321DOjf33gEIecaMtD3t8X4ODRssr+XaJTgIBbgftAlQzDDvVPW2li8yQj2lxqvXX6+1p/p6UtmPbUhMD8oCRYCXUXOe+vXb9CaPI0hbmcG4tZ8+DP4erSuM1AESRE/L6+tmhMaPv0CJpP2rE6dOsqCBfOlsHAR7KvRgPg5m4o3qhan35DaKhoJcmxPM9F4wDxAOgRFleCJJ54IF/Mzw98d+ixVhY67d9CuG6JbPxDPAYoDDUjZb9WqlTXab9u2Mq23U3lxU/vF1VhAfopoiFLZ5MlTJN0ICD+KfRWnnHKyCiBRFYx4QDsX3R7UO3GoKypptIzsm6vW+if3sqcxNycaDU5NlA3bkV02Ts8f+TD8ItJMixYVwudwjjPMOAO0RtCQvHfvfbSDhH66eOu3icLo0aON7J408mQ7QCgo6t+vr8oZ/90tSxYX+Zh49kTQe1ZYuERb3/H12rRpLU89+YT24vkVmEc2KD3yyCOq6TCNbNTWIyvCwPw4AQoViN3at1f/B43IwiNCpg6Kxneg5rXOd8BBehRx6NlTQSd2svOdTQENv0OHnqY9hhkZRvuZhZOTs5M2HtCF41bKLGazizpesGCB5q2+/PIrdaZD75fL6cOHaW7ND75eQ8DE7Lzzzlp+o6WLvRBr165RUkIstB7mEo3oaEXMKGRjLwVd2NSJy7aVa1eK8znHrwvtsa1W0u23Xx8544wzZOTIUfraq5RKtMDELlu2VGbMMHLlnsxiKjPWgv5DcpF0Y+OqxIuYycd2QWqkOOelZfTlBXTC6UejYZPiuCMIv4IJJMlKdYHSFhqNROu6onVqmp1uGO6Dz+rZL3WvCCGwIEOkC7XTH3rIAM1xshHo+OOPl92Nr+d11B8NuF/mhQCMze3IFqxYsVz3Bx988MGuLKCYzS7RDyZk5sxva/rRaA696KIL5aabbvL1ftH6gE+GZnNOF+BkhNCe2R9qCBaI0GwO0G5O8pqdafTPoU2p0TqbdEjzpALpIkFFhjTRU089HSHfcuncuaM8+uijWhGJFzGRj5YgBsCWP+qAqGVWPBtf2DXG8RNuqGWvQD2TVAtuBYf6YGrp1Hn//Q/UN3QICPFatWyhKRWiehoZ2LuBWaI/0evcXTxAi7MI0dqLChcbeQaN/8qWgjJt86ftKt5IPSazS4R76aWXGk2xRTP2EI8UAlEcrTp+jHCbArQUAQFVB3KDaDH8Q4TBkWy12i8UhBAdUj2hgZVUDr+bapquLrhHZ2vn9GnT1fSq62GuhQsX6OYmtoLGgyarJ3whevJWrFxZo47RAITgJCjdzoJ7DYSAf4M/WB+hEAY/Z8HVNcmpDlJBoUMq+0b4vwGtCF188cXKhXjQZPKx+unOoOmQyUbrtTC+DqaHlZ/qK74hsMAawvZ+lspAlsiUtit21SFrQMczdXDOF4wHTSIfm6zJ3uMPOGDl41hjbpub1rMI1cQpk5KbDERodhYcHc9wIlZETT6ccJoLyXHBfIAqpk+Oeig7rpqr1tuRgUxpthg8eLDk5+fVmF84QJGBwIPcaCyImnxUAzC3HLDtgC4Iko74e34tFVnEDwIPeg4JMtLDCXew1fh+KKRYW66iIh+qlYQjBExLC2k39mi0bdNGVTLb8iyaN5AxCXPdchnOawYC6drRRLGBHGlT0Sj58O/YWU8BntZqx+zTczjgkNBpR142ilokB8j4MBN40BXu+H78g/b76KOPYtJ+jZKPU4/emjJFtV4oqEvTSkaHDu1lyAlDrNbbgdClc2cZNuw03e8bOjQzTaoqq5UbELCpWxG2Sz4cST0D7rPPQlov3GJNyM3+Ujc7cNGw5I24kr2dsTnCKRfS9hWZnYgHyBq5k1Zz0i5wYuPGYt0HTfGhKbLbLvnWrF0rb7/zrvz40090nRukmai3TLP4HD69i4l03QAkZ7sl/WJsNudgm1gjKIvQQUk0+P7lL3/Rw5J4yhENr26AZDtNsFR94AKcYJ8vx7F98sknTeoAb5B8pFZ4ss/cObPN6wrjXIbTKMb2EmSg9dzI6JMvYsVQNaG5c9y4cbqbn5qqRWzA/2IRP//883osBgRk34pbyXASz5RSw36YcoMH8FCAIBUXraZtkHw0D2DLiWbqgiI66tWNm0HD8fint99+z5A5YNR4UIlHDskiNtAIMWv2HO1EFgnK66+/oQ2zblgTZI5igoB8P4+Y0PfNxYYpuoGiLbs1SD7Yi89QN4MNQdgYzsGLBCPx7mhnRU6e/KZZPWaa0kP+I2cmJ2qv6I6GYHqo55BUme7aiwPI2jnug7P8aCaJfLYJTQiU3aI18Q2Sj3YZetNotCSr7Wg5mgloLRozZoy2z9PzFkuOB7ASOSqXkzOd/CFg5VryuQfmljMS2WMSi/ZD9ighfPG7775bd9199NHHv2gs4aJ3kXOnow1Ct0s+juuid4svJbqJJOCKFSvlmQkTdSBUPjCVTY1SUdOcIEoLPisU4Ef6sTsES+Dcf6qBuWWOmWvmvClApvQ1shUUbffss8/9qqOJpDMFBw5loss52pa6BskH2K119tlny1VXXiUFBT3MX6oyqjZEMEwkUdXUadPknnvu0dPfCbejtfeoZjZMc1CPs0cC6OmlTnDjI/DYKp50lKpgjjlLhzmP1iwiX6oXZCEIAj83Vo7zqJ2nBygXDCc4gezSS0frvh0UVbTKY7vkA/Tsjxhxhtz7j3/IkCEnmD8cDCcYuSFIEpCVK1frQZDXX3+9PPzww1EFC6hw/BBnBVkkHsw1c84B7Y0B3w23ilZ6DlRatYrTSgM1zSNwAC7ACc75u/DCC3XfTlOaSxolH6BpgNQK5+6NGXOj8QN7GuezzKyg8Lm+5g/yGLqfZs2R+80KGTb8dG07J2KuD/hzaEu0ZE0Kx+dQdyD8OlXBXDPn+G0N+dTIDD+ePC6KZO68+WrlkDFzgMyRPRyAC3CCpoNY9uxERT5AxIQzSX6HzeCnDx+uj5Vy9rUqCc1nios3y9Spn8pw83OiIiKgugg9mO9bvanUQapTLwTmnFo9MqgLZIXMRowYodpx85YSlaljRpE1py2ccfrpygG4ACf4TCxo8m+xP4HWGk51wszu16e3bCsrUacTMFBO3GQXGI2n+AvcrBNlkZ7h8VSodeemLJIH5py5Z781WQWAbJARskJmpFPo13Pkg2yRMbK+8sorVfZwIN6N7zFRlkFRZuHYMQ6X5uiHljktjO9ZG+1y0DVH7E+YMEGPXiUihngcKET0FPL1LPmSj9DTNsn54f+x8X3y5MlaEUHrIbPaQ8qJZqv06U2U1AhWeJAObpgbiiOug4JoJmWbYO8+fSSnRY5ZMct0V7s+94vBmQtfkOebzZz5jcyfP19bsxYu5ICekDqv3ZhSezOkNYYPHxb37ig3sWzZcrNwpmgZqXas1TUphkSdIB8LINZLL7+sPp6DUJooLBcDNv3z/GGqWE8//Yw+CJEsg/Nzp0TWq1dPPSaDi2PS3NwOGpuxjgCD2csMilCbzeLs0qffq6brwbzm0JyVq1bLCy+8aAKRmTXE4zM7ZWdJbquc0JkmKYpaMvoTzG160Gi8YGh/tY7XyABZsCm8cPFilVEt8TjUiNP8j1bLhoVjG6nb2yTiJp8DjlcgIc0p5uecc5YaVHbyOyRkFaLuQydZhYiXnZWpz1pjd5TzbNhUA/cSq8OdLDC31GJ5GDZz7hAQWSATR0PyPjIjkMS8Ikvap3CxEgFXZw0zzE2SCceHYL8nERKnHNUFdUE2pnAWMblEi8QCk8leW87Yc548FAlkhKwOP/wwLZ2i8TjJFZkmCglZsuR8eMIQK+eC88/Xvj+OgXW0INET554cN2iwlmPIpFskFrhHzDWPhmCLq5OdQCbIZrcO7WXUyJFaLqWqlYyzdhJmL1gxnNnCeS5jxtwkRw0cqBExB0fyqM2DDjxAzj3nbHWEG0pGW7gH9mBAQI71gITIAFkgk0EmYLr1llv0aZcccpRIbReJhDor+BUcnkO2nIZGDgfnDOLjjx+sN0qkTJ0x2uZDi9jhEAp54BKdeupQffYHygHZ4K9zELoTdCQDCfeUuRnOMmF/L4cLUdohX4Qj63b0ZNE4CI44fYB6LCVOTqHCH/TirJmEk88BN4avwW43nqkbebyWW/sLLKIDWpDTR0mfYIqTTToHSSPf9uDVzVt4C1+Qz5rfxMOPC9wX5LNIPPy4wC35LDyDJZ+FZ7Dks/AMlnxRolqqaG+zcBGWfNHCMs91WPJFCT3KI/zawh1Y8kUJa3bdhyVflEgzU2U1n7uw5LPwDJZ8Fp7Bks/CM1jyWXgGS74dBE09vi4ZsOTbQeDHswUt+Sw8gyWfhWew5LPwDJZ8Fp7Bks/CM1jyWXgGSz4Lz2DJZ+EZLPmaKaoqq4SnwfsZlnzNGv5uf7Xka7ZA61nyWVjUC0u+ZgtE62/xWvI1W2Byrdm18ASWfBY+gRuPuHcblnw7CPx47rUlX5RIvU3j7DL2905jS75okVrMM/g1+Rp6xq5XsOSz8AyWfDsIrM9n4Rns1kkLiwhY8ll4Bks+C89gyWfhGSz5mi2Ibm0ns4VFvfAF+VL5wX8cwOPHNEZdlJaW+u6wIM/Jx+M3MzMzw/+zcA+I1t+GzZpdC89gyWfhGSz5LDyDJZ+FZ7Dka6YIBNL08jMs+Zopqqqq9fIzLPmaKQLBgATN5Wf4YnQZGRnhVxZuoe5BQeXl5eFX/oHVfM0UVvNZWGwHlnzNFNRxq23AYeEJ6vCuoqLCd5uILPmaKdICaXo5oPPGks/CIgxLPgvPYMkXJaqM2ar24cbrVIbn5KOLOTs7O/w/ix0JVvM1Banb7e9L+JZ8ZWVlsmnTJikuLvbFVVJaUm/ejCiypKRENm/eXO/vJftizpi7VECamThPM5HLly+Xe+65R8aPHy/pGVn6XlVVpZx26lDp2rWrbza9LFmyRD744ENZv2FjzYYnxtaqVY4cNXCgFBQU+CKVwdgWLVokr7z6mgQCQX2vorxMTjrpJLnzzjulS5cu+p4f4AvyjR07VsaNG1dDPgABfbfbygiz7k47xshY/QTG6BAP+JV8npvdrKxawkWCyQsG03111SUe4L36PuvlFUk8P8Nz8tmtk8lB69atda79BM/NLn1mkyZNkuuvv16KiorC71q4iby8PLn99ttlxIgRDVoaL+A5+QC76WfNmiWLCgtlzZo1Umqix0jk5OSoecvIzJJgICAZGYldwcFgyGxpZ4i5AuZvEkwwBi4iXOc957N+BJouNzdXOnTooL6en4gHfEE+ix0TNsls4Rks+Sw8gyWfhWew5LPwDJZ8Fp7Bks/CM1jyWXgGSz4Lz2DJZ+ERRP4fkeMqeWxskOkAAAAASUVORK5CYII=;" vertex="1" parent="1">
                    <mxGeometry x="39.5" y="580" width="130.82" height="130" as="geometry"/>
                </mxCell>
                <mxCell id="6" value="" style="shape=image;verticalLabelPosition=bottom;labelBackgroundColor=default;verticalAlign=top;aspect=fixed;imageAspect=0;image=data:image/png,iVBORw0KGgoAAAANSUhEUgAAAIIAAAB+CAYAAADoU8mfAAAAAXNSR0IArs4c6QAAAARnQU1BAACxjwv8YQUAAAAJcEhZcwAADsMAAA7DAcdvqGQAABNpSURBVHhe7Z0HQBVHGsc/sAAqirFgNyZGjV7EQhPrqRFFlGCJ2FtyF2OMGOuhEIKxIsHLYcHDcthBbKeIiho7ioKi2EvK5aKeFQuIlJtvdh5v3+MBr+w+3uL8kpGdYd9jd+Y/38x8MztrlU8AzluPNfvJecvhQuBQuBA4FC4EDoULgUPhQuBQuBA4FC4EDoULgUPhQuBQuBA4FC4Ec1HMlI54uqe0pn74pJNMYKZaCYcFnDh+HJ4+eQoP7t+HlORz8OLFC6hUuRK4e3jAOzVqkPAOeHTsyM42L1wIMnPubDJEr1sH+xP2Q25ubmF1iLCysgJra2vo178/DBnqBy6uruw38sOFIBNX0q/ApAlfwi+//kKtgzVRQD49Kh4Ug6pI6tevB5FRUdDiww9pXE64EGQgYMZMiImJYTEVVtQYoBgqVKgAVe2rgo2tDWRlZcHz58/hzZs3wmk6CAwOhuHDhkH5ihVYivRwIUjI69evoYu7Bzx68pilqKlTpw41+ZOnTAFbO1uWqiYzMxO+DQyC0ydPwR9//JelCmABfdD0fYjbtQsqV64sJEoMF4JEZL16Ba1bfQR5+XksBbECB4dqsHvPHqjXoD5LKxosCmwanj59Cp7de8JjIihx8VSys4NTyWehSpUqLEU6+PBRAvJIJ7Bdm7YafQAs0IhlEZCcmqKXCBBV/8DBwQFOpyTDJP/JNE3Fq8ws8O7tBXl5YrFJA7cIEjDYxxdSL15gMYFjJ07oLYDieJHxnIisjUbhjxs/HgIC57CYNHCLYCJ3b9/REIGVVT4cOymNCJDK9lUg6exZKFeuHEsBWLN6DRxJPMRi0sCFYALZ2dng7eVFj3FMgGY8Nm4H1KsvjQgQ/M53ataAgNmzWQqSD7MDAtixNHAhmMDxo8foSAHB/kEbYsLbtGtL41KCrffocWPB3d2dpQA8ePAAYrZsZTHT4X0EE3Bt1x4ePxaGiuXLl4eL6ZfBxsaGxuUAXdOdPTpBbm4OjTu1diJDyh1oNmjcFMqsRYhcvgJaNW8B7s6ukHgwkaVKx5X09AIRIC1bfQgVK1ZkMXmo5egInbt0ZjGAC2kX4f79ByxmGmVSCF9P/AqWhIZSs/3w4f/gqwkTYN2atRpjcmNRfcf1a9fpT9VXrohcRdtzOcFv/8TXV4gQML5zB7EIElDmhODb3wfi9+7VKPScnByYN3cuLF64kKUYj6qwYzZvwRi1yvb29uBYpw5Nlxvvft5ga6v2TN65dZsdmUaZEcLtW7fgz526wKW0NObW0aydKIx/klo7duRo6gBSpRnLLfL3yDdQi2BbyU5INAdEeXXr1WURgN9+/ZUdmYaiO4t46VhDDycmwjf+U+j8vpjQsDDas9+9exdLEahPhnfx+xOgsgmu2ubvNxWmlQmNGzeGQ0d/osdiZk6bDrt27jRJcLrIy8ulAkRq1awFp8+dFSImoGiLgCLYERcHE/76hYYIqlSuDGuj/wW+AwdA2N/DYbK/f4FJR37//XfS++4IN27cYCmGoxIBUqNGdXYkJo+239gs4blSBrGusrIy2ZFpKFIIqhoW8fcfYfrUaTRzVDRu/C7EEQvQuUsXlgLUZ/+v9evJEE89jZuRkQH9+vSFfXvjWYrUWIOtHWkyFGJvFdk0YBs/3G8oJCcnsxQBJ6c2EL1pQ5FTtdevXoURw4bDk8dPCroQaCm+CwkBv+HDwMoal4/oR9N3m7AjgHbt2kDM9sK998uXLsGqlZEGNQ0HEhIgVzSv4NXXS8MCIJfTLsGv//mNXqs9ad5SL18SfmECihNC5qtX0KlDR1Kjn2lkcNdu3eCfq6PAWuST18Xjh4+IGIaJmgXMzny6NCyYCAIXjehDSULAaxM3R/qAd9P6wxaQmcm8leTzt+7cLvQ9s6bPgG2xsfRYKiEoomlQFfc1UqPbfOQEz549Y4lCBs0KCIDV69aWKAIE/fa74/eSwmtH46o83kqGgz5e3rTJkAJDRYDgJ8TiNkZMxqIIIWBWnDx2HLxJm47uVVXWYB7FbNsGn/3lc40MLAl0B2+N2wa9+/RRq4xw4+ZNcHN2gfsP7rOUtweLFwLOw8fFxMLokaNIjNQQJgM7MnZPOpcM7Zzb07ihNQfPj1ixHOYtnC/6bD7kZL+Bzm4ecOniRZamWUvNCV4V+gm0w8uXL4UTJMSi+whvyNAraFYAxG4T2kMVNaq/A6fI2Fk8R28sePuZJGPbt21XaAFpWHg49P/ER6fI9OksGsOfWjQnQ8JsFtMNVgbVaqgy30fAkUHv7j01RIC3js6gM6nnJREBgoVciWRm2pX0QqONqVOmwLIffyzSIqisk7lBERhqAUvCIoXwOus1tG3tRJ8JoLBy6OPlBUdPnhAiEoOjhZS0i9RLKCY8fCmMHDqMxcwLDiLNJTaLE0LSqdPQzsmJtYMsE8iPFZGRELF8mRCXCbQyB48chq5du7IU4QqSkpKgk3sHKlAVEydOFNVMeQoLv/XchRQ4fyFVI2BzJXWLbjFCwBvbtH4DjBk1umDVD5oCKytr2LMvHj727MXS5AUfOYsiQ9GvJk1iKQL37t0DdxdX0ln7jcYnT5sK/4iIoNdtrTJZEoPfWs3BoVCoWEH6dQ8WI4T5IXMhOOhbyMkhHTbW/jk6OsLRE8fM8siXGKzl/lO/gegNG4gw1LX9+fMM8PLsDbtIx9CanNPHuy9siY0hYmAnKJhSFQI1b+T/MSNGwtq16woeDsF0fAB0b0KCpAtBDcWjU0fYd+CARify1atXMH3adFgSupjG2zs7w9qNG+mxkilVIWBd+7h7DzhxAjuA6mrl7e0N69ZHg0N1B5ZSAjJWyfebNoX4/fuhWbNmNI7GCn0bkctX0mlmxK5SJfpTanCQmHouGVKSNcPjR4/YGdJRan6EG9euw6gRI+Dhw4csBW9cMMlffjWRdcIsB+y8zpo2A/bFxwsKZuBEF11AKhHafgSxz0AXipx0wj+Eebgzbjtdl5/9OpumCTeaD1GrV8Ofe/Qgx4YTtjiUPllcEpixtes4Ure0oaAl+C44GDZGr2cpwvfVrFUT9h9KhKpVq7JU4ynsUMIc0y4idZpiZx9xdXFY6BLhES5Ws3DNH3bMPnJqLSQYyID+PpCWlsZi+jFj5kz4/Iu/Gm55SG5tXL8evg0KYgkCtjY2sH7TJmjbXpjMMhaxEFQFU9wVKk4Iebl5ZFQQBJu0OlYtW7aEyNVRULeueh2eobg7u2g0MfrQoFEj+OnYURYznDNJSTBm5CgNtzRah8DgIBg1ZgxLMRxtiyAMUdXrE5BNGzdD0unTVCGKcjFnZWbCIF9fcgObaBwzDOnWrRsZfsWaJAJEt5QxURVUGFj7i8HN3R0OHj4EjrUdSUz4Xmzi5n4XAkvDfhAsnongN+AQ1atfP43QoGEDKW+FIrsQnpAebucOHhqmGzNs4OBBsGrNarqZlJR4enrCpStX4NLVq6KA8StQoUJ5dpY0NGjYEPYlHgBXN/VeR2hgI/4RAbNn/Y0uolEKsgoBzVcHN3d48vQpSxFq5+zAQFgUGkq9eFKDbmKcorazKxxwxY/UYAdxA+kb9CICVFfTfIiNiYV+fb3hkYFNVmkhixCwVmwnJn/ksOF0Fa+Y+IQEGDNuLD2nrGBdzhqWR64Ev6F+RApqsf189y508egEd24b9xAKfhN+VjvgnktSI7kQct7kwMqI5TBj+oxChY099GakM4Q/Lc1PIAVz58+D8gXNj3Dvr7Nfg2ePj+HoT4WfeygJzKFePXoWCgcS9gsnSIikQsA28ZvJ/hAWtoSlaFLaNqB0pCc4hMaPGQurIiMhP8/0XCjOwWQskgnh5YuX0LuXJ8TH72UpggUQ13xzCKGoFgeTrWg/3DxgEyEsnlEvr1u8YBEdQms3l8Why3LKYU0l8SNkPHsGHVzd2PQxXqQwfTzEbwjsiNtOzSOCnbXbd+/QYylxa+8Cjx4JnbL33m1CJ4ustO4qj1wTrlTOyRMehjHVj6ALzMqWzZoX+BYGDRoEd0g/IeX8eRIT8gVxatMGYrfH6ewsi/0IKKCQuSGF7mX7zh2QmppK/55FOZQWL1wEq1aupBeGF4+K3bR1Czi7OkOr5i0hW3YhOBMhGDYR07BhIzhyXF4hDB48GBaELoap/lPoM5CYL6rs/n7ePPpQjTZiIaD9uvPzXXosxmKfa8ANIvD28EbxaaHjp0+CCxlby2HCdGOuv2McYUvDYfacOQUiwHxp+adW9NhSkEQIkyZ/DfOJwj/7/HM4fzEV6hR4CrFVNtnglMjX5O8LYqD2qPj/yOXgcw1oXs3J2M/G093Wenv2hpi4bfBRa+PmVeRC9rmGFsRU5mSzSRQZmga8fKxhr16+1KsThjeL6wcq6vlomyHgtehqGgyhtJoGxQvBkpBaCCjwyjoWvWS9zmail66zKKkfgSMtKKwXxNJph1wmAinhQrBghM524Y6wRTuUONKTRyzCnKBACAwK0gi4safUmFUI+Mdk7pJITmleLf5tnKDDXVfFoekHHwgnSIhZO4vIlxMnkE6jcgyRNckd+2r2pEDG02FncUjdWSyzowYl88WECTBtxgxdTXYBShYC7yPoCXVhW7YD0yTMKgSV7cEfSglIrVq1oZ+PD4uZDywcl7btC4V/79otnCAh5m0ayHDolgIdSphF+sybSN006IMimwZZFScj+ohADoryI8gB7yNYMPhQcMtWLUhopRGqV9e106tpcCFYMLi6Y/feeBL2aIQePXuyM6SDC4FD4UKwYLBwdPXl5eg1cCFYMOhQ0tVRlaPTrTghyDzatSiwcLp36Voo0D0aJMasfgRTF6ZMmewPl+kzlNJfspV1OcjPy4MFixZBexdno4aMSvYjKEYIxw4fgXHjxrGYfGD5Hzx8GN5tot5ZVV/kEAKuscwvRpNv3VzDzz+zzTdlBgvzWcYzFitdcLGtIAKsq+IgPYoRgq5Koc4Sw8249kMjYrAALIFccodXb94g4aZGGDBwIDtDOhQjBF3lhgVmTdr2PfF74NqtmwaF0WPHFlngMreWBoFbA2sHObYTUIwQCoOFmA/4xrNP+vvAzes36MIRfUJ46BJYt24t+bTlFLgu9H+xkOkoUgjYo69ZswaLCS/49PXxoe86KomwRYshMjKSxQRGDB/BjiwN8wlVkUJA03j89CmoW7ceSxHEMHjAQEi7oH7hhjZoCVasWMFiBJLPfkOHQvD3ISzB8sA32UX8qBmuXrnCfisdim0aUAw/HT8GDRs2ZCn4oo83MGTQYLiQmspS1IQvCYNly0S7uxMRDPYbAt8vmI8mhiVaHkvDw2HpD5ohPT2d/VY6FCsEbB7KlRe21W/USP2OBRTD0E+HwIUUtRiWoggiIliMQEQw8FMyxl+08K3yVBaHMoUgKjvs/B04lKjhAEKHDorhYuoFKoIILRH4DhoIi5ijxxgPovnBGxYH6VGsRVCBNRr3LUo4eACaiMXAmomICM3mAEUQWsTWPpYGTjqlX70Kl69d0wgDSF9IahQvBFWNRsuAW+qjGFTWPieXPSPI4viuaKWIQIWNnS3Y2moG3MVNahQvBBUqy7CPWAYHh2oslUG00rFTRwj9IYwlKIMiGy0ZWrMyIwSVZViycLHwplgtzpw+A7dv3mIxhYD3pKtLQNOkVUOZEQIyP+R7iIqKYjFNsJno26cP/PaLeSavpAAft3v08AHdcFwc6KZlEluFMiOEud8Gw5o1q8kRVhehJn3q5yfaxkdwOvXs3gPu/fEHS7Fs0AXu5uJGd58Xh3/v3k1+qctUGE+ZEELQ7DkQHR3NYkQGJJOGjRwO8xcuoE6nWrVqsd8A5ObmQrfOXWR5HY6SUbwQggJm0+3/BceQYAlGjBkNwSGC2xhHE0eOETHUrk3jCFoGDzd3ePzQ8sWAfR/tIAeKFgKKYMvmLeRIMJNoCXA/AdxcQjxVa0uGYIeOHIHaWmLo6N7BosWAd4VvvtUO+PIzqVGmEEilCCTNweZNm9krAklNIbk2evw4mDU7QOd7o/G9EAcOHYLajviiDQF0OnVwc4MH9+6zFMsChVCvXr1CwdbOTjhBQhQpBGznt27eTDJKZAlQBAF/o01BUVSxrwL7Ew+yt64I5JDv6uzRkcXeXuQVAikga9GaMFMWWhT3SRTBzBJEoAJfJIZvZFOJAb83l+3PLECyxMjLzNf6nMETWuR8cR+gyPwi56i/2ciL1cKoVcwXUlJgx46dzIWrG7w81EDs1piCjbCJAacvt8gz8NpxPI0rkM6l4ObWmmBfAF8LZE2ag5JW/NJrov/ibvIvYDcOw3TQq1cvqC5a+KIPWGi4+VXs1q3sfU5W8N57TcDV3U1UaEWjyq9tMbHwpiBfrWCojvw6d+Ys3L4tvAwE3xPtO1hz7sGmfEXw/2YKVNX2sBaDwULIePYU3F3cCzba5lgmVe2rQsqlohfpaGNw05B08hQXgQLIeJ7BjvTDYCH08upDTN77xAazBI5F0t3AN+oa1UfANvB5RobhnSGOWcCXplQzoH+AGCUETtlDkX4EjvRwIXAoXAgcChcCh8KFwKFwIXAoXAgcChcCh8KFwKFwIXAoXAgcChcCh8KFwKFwIXAoXAgcChcCh8KFwKFwIXAoXAgcAsD/Adlz87dxgm35AAAAAElFTkSuQmCC;" vertex="1" parent="1">
                    <mxGeometry x="39.5" y="140" width="130" height="126" as="geometry"/>
                </mxCell>
                <mxCell id="15" style="edgeStyle=none;html=1;" edge="1" parent="1" source="7">
                    <mxGeometry relative="1" as="geometry">
                        <mxPoint x="680" y="204.00000000000023" as="targetPoint"/>
                    </mxGeometry>
                </mxCell>
                <mxCell id="7" value="" style="shape=mxgraph.signs.animals.stable;html=1;pointerEvents=1;fillColor=#FFFFFF;strokeColor=none;verticalLabelPosition=bottom;verticalAlign=top;align=center;sketch=0;" vertex="1" parent="1">
                    <mxGeometry x="530" y="155" width="98" height="98" as="geometry"/>
                </mxCell>
                <mxCell id="8" value="" style="shape=mxgraph.signs.food.food_truck;html=1;pointerEvents=1;fillColor=#f5f5f5;strokeColor=#666666;verticalLabelPosition=bottom;verticalAlign=top;align=center;sketch=0;fontColor=#333333;" vertex="1" parent="1">
                    <mxGeometry x="860" y="189" width="123.48" height="63" as="geometry"/>
                </mxCell>
                <mxCell id="14" style="edgeStyle=none;html=1;entryX=0.004;entryY=0.603;entryDx=0;entryDy=0;entryPerimeter=0;" edge="1" parent="1" source="9" target="7">
                    <mxGeometry relative="1" as="geometry"/>
                </mxCell>
                <mxCell id="9" value="" style="shape=mxgraph.signs.transportation.tractor_1;html=1;pointerEvents=1;fillColor=#f5f5f5;strokeColor=#666666;verticalLabelPosition=bottom;verticalAlign=top;align=center;sketch=0;fontColor=#333333;" vertex="1" parent="1">
                    <mxGeometry x="360" y="177" width="99" height="76" as="geometry"/>
                </mxCell>
                <mxCell id="13" style="edgeStyle=none;html=1;entryX=0.01;entryY=0.34;entryDx=0;entryDy=0;entryPerimeter=0;" edge="1" parent="1" source="10" target="9">
                    <mxGeometry relative="1" as="geometry"/>
                </mxCell>
                <mxCell id="10" value="" style="shape=mxgraph.signs.travel.cashier;html=1;pointerEvents=1;fillColor=#f5f5f5;strokeColor=#666666;verticalLabelPosition=bottom;verticalAlign=top;align=center;sketch=0;fontColor=#333333;" vertex="1" parent="1">
                    <mxGeometry x="200" y="154" width="99" height="99" as="geometry"/>
                </mxCell>
                <mxCell id="24" style="edgeStyle=none;html=1;entryX=0.015;entryY=0.483;entryDx=0;entryDy=0;entryPerimeter=0;" edge="1" parent="1" source="11" target="18">
                    <mxGeometry relative="1" as="geometry"/>
                </mxCell>
                <mxCell id="11" value="" style="shape=mxgraph.signs.travel.cashier;html=1;pointerEvents=1;fillColor=#f5f5f5;strokeColor=#666666;verticalLabelPosition=bottom;verticalAlign=top;align=center;sketch=0;fontColor=#333333;" vertex="1" parent="1">
                    <mxGeometry x="200" y="376" width="99" height="99" as="geometry"/>
                </mxCell>
                <mxCell id="16" style="edgeStyle=none;html=1;entryX=-0.025;entryY=0.231;entryDx=0;entryDy=0;entryPerimeter=0;" edge="1" parent="1" source="12" target="8">
                    <mxGeometry relative="1" as="geometry"/>
                </mxCell>
                <mxCell id="12" value="" style="shape=mxgraph.signs.sports.ranger_station_2;html=1;pointerEvents=1;fillColor=#f0a30a;strokeColor=#BD7000;verticalLabelPosition=bottom;verticalAlign=top;align=center;sketch=0;fontColor=#000000;" vertex="1" parent="1">
                    <mxGeometry x="690" y="154" width="95" height="98" as="geometry"/>
                </mxCell>
                <mxCell id="23" style="edgeStyle=none;html=1;entryX=0;entryY=0.5;entryDx=0;entryDy=0;entryPerimeter=0;" edge="1" parent="1" source="18" target="19">
                    <mxGeometry relative="1" as="geometry"/>
                </mxCell>
                <mxCell id="18" value="" style="shape=mxgraph.signs.travel.bank;html=1;pointerEvents=1;fillColor=#f5f5f5;strokeColor=#666666;verticalLabelPosition=bottom;verticalAlign=top;align=center;sketch=0;fontColor=#333333;" vertex="1" parent="1">
                    <mxGeometry x="360" y="380" width="109.36" height="95" as="geometry"/>
                </mxCell>
                <mxCell id="25" style="edgeStyle=none;html=1;entryX=0;entryY=0.443;entryDx=0;entryDy=0;entryPerimeter=0;" edge="1" parent="1" source="19" target="20">
                    <mxGeometry relative="1" as="geometry"/>
                </mxCell>
                <mxCell id="19" value="" style="shape=mxgraph.signs.travel.ticket_purchase;html=1;pointerEvents=1;fillColor=#f5f5f5;strokeColor=#666666;verticalLabelPosition=bottom;verticalAlign=top;align=center;sketch=0;fontColor=#333333;" vertex="1" parent="1">
                    <mxGeometry x="530" y="380" width="98" height="95" as="geometry"/>
                </mxCell>
                <mxCell id="27" style="edgeStyle=none;html=1;" edge="1" parent="1" source="20">
                    <mxGeometry relative="1" as="geometry">
                        <mxPoint x="860" y="432.4999999999998" as="targetPoint"/>
                    </mxGeometry>
                </mxCell>
                <mxCell id="20" value="" style="shape=mxgraph.signs.food.fast_food;html=1;pointerEvents=1;fillColor=#f5f5f5;strokeColor=#666666;verticalLabelPosition=bottom;verticalAlign=top;align=center;sketch=0;fontColor=#333333;" vertex="1" parent="1">
                    <mxGeometry x="690" y="389" width="98" height="87" as="geometry"/>
                </mxCell>
                <mxCell id="21" value="" style="shape=mxgraph.signs.transportation.taxi;html=1;pointerEvents=1;fillColor=#f0a30a;strokeColor=#BD7000;verticalLabelPosition=bottom;verticalAlign=top;align=center;sketch=0;fontColor=#000000;" vertex="1" parent="1">
                    <mxGeometry x="873" y="389" width="98" height="94" as="geometry"/>
                </mxCell>
                <mxCell id="34" style="edgeStyle=none;html=1;entryX=-0.095;entryY=0.49;entryDx=0;entryDy=0;entryPerimeter=0;" edge="1" parent="1" source="28" target="29">
                    <mxGeometry relative="1" as="geometry"/>
                </mxCell>
                <mxCell id="28" value="" style="shape=mxgraph.signs.travel.cashier;html=1;pointerEvents=1;fillColor=#f0a30a;strokeColor=#BD7000;verticalLabelPosition=bottom;verticalAlign=top;align=center;sketch=0;fontColor=#000000;" vertex="1" parent="1">
                    <mxGeometry x="200" y="595.5" width="99" height="99" as="geometry"/>
                </mxCell>
                <mxCell id="35" style="edgeStyle=none;html=1;" edge="1" parent="1" source="29">
                    <mxGeometry relative="1" as="geometry">
                        <mxPoint x="519.9999999999998" y="646.0000000000002" as="targetPoint"/>
                    </mxGeometry>
                </mxCell>
                <mxCell id="29" value="" style="shape=mxgraph.signs.healthcare.mental_health;html=1;pointerEvents=1;fillColor=#f0a30a;strokeColor=#BD7000;verticalLabelPosition=bottom;verticalAlign=top;align=center;sketch=0;fontColor=#000000;" vertex="1" parent="1">
                    <mxGeometry x="368" y="597" width="84" height="98" as="geometry"/>
                </mxCell>
                <mxCell id="32" value="" style="shape=mxgraph.signs.travel.ticket_purchase;html=1;pointerEvents=1;fillColor=#f0a30a;strokeColor=#BD7000;verticalLabelPosition=bottom;verticalAlign=top;align=center;sketch=0;fontColor=#000000;" vertex="1" parent="1">
                    <mxGeometry x="700" y="600" width="98" height="95" as="geometry"/>
                </mxCell>
                <mxCell id="36" style="edgeStyle=none;html=1;" edge="1" parent="1" source="33">
                    <mxGeometry relative="1" as="geometry">
                        <mxPoint x="690" y="649.5" as="targetPoint"/>
                    </mxGeometry>
                </mxCell>
                <mxCell id="33" value="" style="shape=mxgraph.signs.safety.handle_with_care;html=1;pointerEvents=1;fillColor=#f0a30a;strokeColor=#BD7000;verticalLabelPosition=bottom;verticalAlign=top;align=center;sketch=0;fontColor=#000000;" vertex="1" parent="1">
                    <mxGeometry x="530" y="600" width="91" height="99" as="geometry"/>
                </mxCell>
            </root>
        </mxGraphModel>
    </diagram>
</mxfile>